<svg width="30" height="30" viewBox="0 0 30 30" fill="none" xmlns="http://www.w3.org/2000/svg">
<path d="M15 9C18.3137 9 21 11.6863 21 15C21 18.3137 18.3137 21 15 21C11.6863 21 9 18.3137 9 15C9 11.6863 11.6863 9 15 9Z" fill="#2094FF"/>
<path d="M26.624 12.9505C28.3627 12.6439 29.5545 10.9643 28.8871 9.32972C27.9552 7.04772 26.4686 5.01452 24.5413 3.42572C21.7854 1.15402 18.3094 -0.0598786 14.7384 0.00242138C11.1674 0.0647214 7.73579 1.39922 5.06079 3.76582C3.19019 5.42082 1.77539 7.50472 0.923685 9.81782C0.313685 11.4747 1.56349 13.1117 3.31189 13.3574C5.06019 13.6031 6.62999 12.3305 7.49359 10.7905C7.96169 9.95582 8.56938 9.19852 9.29738 8.55442C10.8322 7.19652 12.8011 6.43092 14.8499 6.39512C16.8988 6.35942 18.8932 7.05582 20.4744 8.35932C21.2245 8.97762 21.8582 9.71322 22.3552 10.5311C23.272 12.04 24.8852 13.2571 26.624 12.9505Z" fill="#7663E9"/>
<path d="M0.115999 13.1255C0.0393992 13.7396 0 14.3652 0 15C0 23.2843 6.7157 30 15 30C23.2843 30 30 23.2843 30 15C30 14.1853 29.935 13.3858 29.81 12.6063C29.1211 13.5495 28.0457 14.2228 26.8842 14.4276C25.6276 14.6492 24.4854 14.3444 23.5197 13.7747C23.5768 14.1749 23.6063 14.584 23.6063 15C23.6063 19.7531 19.7531 23.6063 15 23.6063C10.2469 23.6063 6.3937 19.7531 6.3937 15C6.3937 14.6866 6.4105 14.3771 6.4431 14.0724C5.4978 14.6757 4.3668 15.0204 3.1029 14.8427C1.9353 14.6786 0.837499 14.0436 0.115999 13.1255Z" fill="#2094FF"/>
</svg>
